<svg width="32" height="26" viewBox="0 0 32 26" fill="none" xmlns="http://www.w3.org/2000/svg">
<path d="M3.77734 15.8286C9.24095 15.8688 12.4415 16.0443 14.3252 16.2915C15.3977 16.4322 16.0725 16.5992 16.501 16.7925C16.9489 16.9945 17.1643 17.2434 17.2539 17.5415L17.2764 17.6353C17.3562 18.0338 17.1658 18.3769 16.8604 18.647L16.7119 18.7661C16.3499 19.0309 16.1963 19.2097 16.1348 19.3081C16.1268 19.3208 16.1218 19.3324 16.1172 19.3413C16.15 19.3776 16.2289 19.447 16.4102 19.5347C16.7089 19.6791 17.2314 19.848 18.124 20.0073C19.9072 20.3256 23.0916 20.5923 28.7334 20.5923C29.1038 20.5923 29.3767 20.9039 29.377 21.2505C29.377 21.5973 29.104 21.9096 28.7334 21.9097H28.7305C22.9888 21.9097 19.6449 21.6482 17.6953 21.2661C15.9009 20.9144 15.157 20.4361 14.9062 19.8267L14.8623 19.7026C14.7186 19.2205 14.8949 18.7942 15.1338 18.4712C15.296 18.2519 15.5024 18.0593 15.7002 17.8979C15.6318 17.8776 15.5529 17.8532 15.46 17.8306C14.9765 17.7128 14.1766 17.5781 12.8633 17.4624L12.2686 17.4146C9.76992 17.2288 6.18141 17.1362 1.29395 17.1362C0.96973 17.1362 0.71955 16.8978 0.662109 16.606L0.650391 16.478L0.662109 16.3501C0.719397 16.058 0.969589 15.8198 1.29395 15.8198L3.77734 15.8286Z" fill="white" stroke="white" stroke-width="0.7"/>
<path d="M22.7749 15.8247C22.9009 15.8106 23.0432 15.8236 23.1753 15.8755L23.1763 15.8745C23.9937 16.1951 25.1896 16.3645 26.5659 16.4497C27.9344 16.5344 29.4427 16.5347 30.8696 16.5347C31.0067 16.5347 31.1475 16.5666 31.2661 16.6353C31.3749 16.6982 31.5326 16.8378 31.5327 17.0659C31.5327 17.2941 31.3749 17.4336 31.2661 17.4966C31.1475 17.5652 31.0067 17.5972 30.8696 17.5972C29.0355 17.5972 27.4216 17.584 26.0435 17.4829C24.6681 17.3821 23.5011 17.1924 22.5688 16.8267H22.5679C22.4434 16.7775 22.2932 16.676 22.2329 16.4956C22.1627 16.2853 22.2547 16.0942 22.3872 15.9819L22.48 15.9175C22.5772 15.8622 22.6831 15.835 22.7749 15.8247Z" fill="white" stroke="white" stroke-width="0.7"/>
<path d="M5.10449 21.4744C5.33065 21.1708 5.76233 21.1133 6.05078 21.3787L6.41211 21.7C7.25325 22.4209 8.0899 22.9439 9.2041 23.2839C10.4884 23.6759 12.1664 23.832 14.6797 23.7273H14.6826L14.7539 23.7292C15.1059 23.7558 15.3504 24.0658 15.3623 24.3933L15.3555 24.5222C15.3111 24.8219 15.0777 25.0946 14.7334 25.1101L14.7324 25.1111C14.2055 25.1321 13.7092 25.1433 13.2432 25.1433H13.2412C11.1349 25.1433 9.60949 24.9188 8.36035 24.4597C7.10644 23.9989 6.15482 23.3102 5.18652 22.4226L5.1875 22.4216C4.92158 22.1782 4.88964 21.7629 5.10156 21.4783L5.10059 21.4773L5.10254 21.4763L5.10352 21.4734L5.10449 21.4744Z" fill="white" stroke="white" stroke-width="0.7"/>
<path d="M20.5664 23.6908C22.3455 23.2572 24.6321 23.2606 27.7275 23.6791L27.7266 23.6801C28.146 23.7351 28.3236 24.1603 28.2959 24.4799C28.2688 24.8053 28.0098 25.1947 27.5723 25.1381H27.5703C24.7519 24.7574 22.7053 24.7397 21.1465 25.059L20.8418 25.1263L20.8379 25.1273C20.7921 25.138 20.7456 25.1429 20.7021 25.1429H19.9746L20.1973 24.8646C20.1492 24.7956 20.1116 24.7198 20.0879 24.642L20.0625 24.5326V24.5316C20.014 24.2107 20.1676 23.7847 20.5664 23.6898V23.6908Z" fill="white" stroke="white" stroke-width="0.7"/>
<path d="M17.1426 8.27393C19.5544 8.27393 21.7512 8.96859 23.373 10.1245C24.8936 11.2083 25.9232 12.7106 26.1152 14.4272L26.1426 14.7729V14.7739L26.1348 14.9087C26.0829 15.2124 25.8122 15.4267 25.5146 15.4409H25.4844V15.4399C25.1963 15.4393 24.9217 15.2508 24.8467 14.9604L24.8271 14.8306C24.762 13.3927 23.9221 12.0807 22.542 11.1167C21.1621 10.1529 19.2608 9.5542 17.1426 9.5542C15.1644 9.55427 13.3535 10.0891 11.9883 10.9653C10.6218 11.8425 9.72208 13.046 9.50586 14.3833V14.3843C9.44576 14.7508 9.09504 14.9617 8.7627 14.9175L8.75879 14.9165C8.4192 14.8677 8.1432 14.5568 8.2041 14.1841C8.76185 10.7428 12.6741 8.27406 17.1426 8.27393Z" fill="white" stroke="white" stroke-width="0.7"/>
<path d="M17.5186 0V4.31152H16.8193V0H17.5186Z" fill="white" stroke="white" stroke-width="0.7"/>
<path d="M8.65625 1.83362C8.93485 1.75084 9.25478 1.85569 9.41211 2.12659L10.9668 4.7926L11.0225 4.91467C11.1177 5.20571 10.9811 5.52315 10.708 5.66565L10.7041 5.6676C10.6075 5.71645 10.505 5.73986 10.4014 5.73987C10.1829 5.73987 9.95994 5.62936 9.83691 5.42151L9.83594 5.41956L8.28125 2.75354C8.09514 2.43434 8.22747 2.04442 8.53906 1.88147L8.65625 1.83362Z" fill="white" stroke="white" stroke-width="0.7"/>
<path d="M2.97705 8.479C3.17958 8.26097 3.51504 8.20582 3.78076 8.36475L6.42529 9.93896H6.42627C6.73341 10.1207 6.8312 10.5176 6.64697 10.8208L6.646 10.8228C6.52403 11.0209 6.31143 11.1294 6.09521 11.1294C5.98573 11.1293 5.87064 11.1019 5.76416 11.0376V11.0386L3.12061 9.46338L3.11963 9.46436C2.81251 9.28264 2.71441 8.88595 2.89893 8.58252L2.97705 8.479Z" fill="white" stroke="white" stroke-width="0.7"/>
<path d="M30.5576 8.36475C30.8233 8.20561 31.1587 8.26108 31.3613 8.479L31.4404 8.58252L31.4961 8.69971C31.5969 8.98136 31.4885 9.30528 31.2197 9.46436L31.2188 9.46338L28.5742 11.0386L28.5732 11.0376C28.467 11.1015 28.3524 11.1294 28.2432 11.1294C28.0302 11.1293 27.8135 11.0228 27.6914 10.8188L27.6924 10.8179C27.5097 10.5149 27.6065 10.1203 27.9131 9.93896H27.9141L30.5576 8.36475Z" fill="white" stroke="white" stroke-width="0.7"/>
<path d="M25.0029 2.02209C25.173 1.83219 25.4413 1.76251 25.6816 1.83362L25.7988 1.88049L25.9072 1.95178C26.1062 2.11314 26.1949 2.38194 26.1133 2.63147L26.0576 2.75354L24.5029 5.41956C24.379 5.63228 24.1557 5.73979 23.9375 5.73987C23.8615 5.73987 23.7833 5.72721 23.708 5.69983L23.6338 5.6676L23.6299 5.66565C23.3181 5.50275 23.1858 5.1119 23.3721 4.7926L24.9268 2.12659L25.0029 2.02209Z" fill="white" stroke="white" stroke-width="0.7"/>
</svg>
