<svg width="31" height="26" viewBox="0 0 31 26" fill="none" xmlns="http://www.w3.org/2000/svg">
<path d="M4.48779 7.40735C5.48087 6.93699 6.66677 7.37127 7.13037 8.37024H7.13135L12.9185 20.8243L12.9937 21.0089C13.147 21.4438 13.1457 21.9149 12.9888 22.3546V22.3556C12.8314 22.7945 12.5325 23.1578 12.1392 23.3947L11.9644 23.4884L11.5249 23.6964H11.5239C11.2576 23.8215 10.9729 23.8866 10.6831 23.8868V23.8878H10.6812V23.8868C10.4523 23.8866 10.225 23.8458 10.0063 23.7667H10.0054C9.569 23.6075 9.20847 23.3058 8.97412 22.9093L8.88135 22.7335L3.09424 10.2794L3.09521 10.2784C2.86963 9.79497 2.84542 9.25024 3.0249 8.74915L3.10107 8.56555C3.2978 8.14915 3.62868 7.81497 4.04834 7.61536H4.04932L4.48779 7.40833V7.40735ZM5.31201 8.30383C5.19097 8.30656 5.0668 8.33214 4.94775 8.38782L4.94873 8.38879L4.50928 8.5968C4.31675 8.68847 4.16548 8.83945 4.07568 9.0304L4.0415 9.11536C3.9591 9.34709 3.96978 9.59553 4.07275 9.82043L9.85986 22.2745C9.95125 22.4697 10.1012 22.6219 10.2896 22.712L10.3726 22.7462L10.3735 22.7472L10.4595 22.7736C10.6611 22.8258 10.872 22.8055 11.0649 22.715L11.5044 22.507C11.7242 22.4022 11.89 22.2199 11.9722 21.9894L11.9985 21.9015C12.0429 21.7248 12.035 21.5418 11.9751 21.3702L11.9409 21.2853L6.15381 8.83118C6 8.49915 5.67241 8.30394 5.33057 8.30383H5.31201Z" fill="white" stroke="white" stroke-width="0.5"/>
<path d="M2.56836 11.6381C3.53381 11.315 4.62914 11.7334 5.07812 12.6498L8.60156 19.8188L8.68066 20.0053C9.00332 20.8832 8.62832 21.8574 7.80469 22.3295L7.62109 22.4233L7.16895 22.6254C7.06919 22.6698 6.96683 22.7029 6.86426 22.7309L6.94824 22.809H6.31348C5.60291 22.809 4.91112 22.4494 4.53906 21.8198L4.46875 21.6899L0.945312 14.5209V14.52C0.713598 14.0468 0.686282 13.5109 0.873047 13.018L0.952148 12.8383C1.15581 12.431 1.49758 12.1071 1.92578 11.9145L2.37695 11.7123L2.56836 11.6381ZM3.23828 12.5961C3.10406 12.5961 2.96613 12.623 2.83496 12.6811L2.83594 12.6821L2.38477 12.8842V12.8832C2.18361 12.9737 2.02951 13.1222 1.93848 13.3051L1.90332 13.3862C1.82029 13.6069 1.83127 13.8431 1.93555 14.058H1.93457L5.45801 21.226L5.50293 21.3061C5.72919 21.664 6.19855 21.8306 6.625 21.6889L6.71582 21.6537L7.16699 21.4526L7.25195 21.4096C7.66093 21.1755 7.81696 20.6864 7.61719 20.2797H7.61621L4.09375 13.1098C3.9379 12.7916 3.59992 12.5962 3.23828 12.5961Z" fill="white" stroke="white" stroke-width="0.5"/>
<path d="M17.6084 0.873047C18.0437 0.708519 18.517 0.707825 18.959 0.87793L19.1426 0.959961C19.5597 1.17171 19.8894 1.52642 20.084 1.9707L21.2588 4.64746L21.2637 4.66016V4.66113L21.2646 4.66309C21.2653 4.6648 21.2666 4.6673 21.2676 4.66992C21.268 4.67107 21.2681 4.67261 21.2686 4.67383L25.8867 15.1963L25.9346 15.3125C25.9787 15.4308 26.0123 15.5544 26.0342 15.6797L26.043 15.7881C26.0403 16.041 25.8715 16.2783 25.6064 16.3311L25.6055 16.332C25.2981 16.3923 25.0241 16.176 24.9727 15.8838V15.8848C24.958 15.8053 24.9362 15.7311 24.9062 15.6631H24.9053L20.2832 5.13184V5.13086C20.2786 5.12076 20.274 5.1095 20.2695 5.09766V5.09863L19.0996 2.43359V2.43262C19.0057 2.22069 18.8528 2.05889 18.665 1.96387L18.583 1.92773C18.385 1.85178 18.174 1.85127 17.9785 1.92578L17.8955 1.96191L17.8945 1.96289L17.4541 2.18066L17.4551 2.18164C17.0297 2.39494 16.8181 2.92981 16.9766 3.41211L17.0127 3.50781L17.0137 3.50879L22.2979 15.5479V15.5488L22.332 15.6514C22.3872 15.8959 22.2788 16.1628 22.042 16.2822L22.043 16.2832C22.0058 16.3022 21.9672 16.3141 21.9297 16.3232L21.9141 16.3418H21.8047C21.6183 16.3418 21.4481 16.2438 21.3496 16.085L21.3125 16.0127L16.0273 3.97363C15.5693 2.93119 15.985 1.6717 16.9834 1.17188H16.9844L17.4248 0.953125L17.6084 0.873047Z" fill="white" stroke="white" stroke-width="0.5"/>
<path d="M21.9717 3.01434C22.9371 2.6913 24.0324 3.10975 24.4814 4.02606L28.0049 11.194L28.084 11.3806C28.4066 12.2587 28.0313 13.2329 27.207 13.7048L27.0244 13.7975L26.5723 13.9997C26.422 14.0665 26.2672 14.1123 26.1113 14.1423L26.1348 14.1852H25.7168C25.0063 14.1852 24.3145 13.8258 23.9424 13.195L23.8721 13.0651L20.3486 5.89618C20.1168 5.42296 20.0898 4.88839 20.2764 4.39423L20.3555 4.21454C20.5591 3.80716 20.9009 3.48327 21.3291 3.29071L21.7803 3.08856L21.9717 3.01434ZM22.6416 3.97626C22.5074 3.97626 22.3694 4.00215 22.2383 4.06024L22.2393 4.06122L21.7881 4.26337C21.5871 4.35383 21.4328 4.50145 21.3418 4.68427L21.3066 4.76532C21.2236 4.98617 21.235 5.22233 21.3389 5.43524H21.3379L24.8613 12.6022L24.9062 12.6823C25.1486 13.0672 25.6705 13.2319 26.1191 13.0309L26.5703 12.8288L26.6553 12.7858C27.0643 12.5517 27.2205 12.0625 27.0205 11.6559H27.0195L23.4971 4.48798V4.487C23.3454 4.17753 23.0214 3.98655 22.6709 3.97626H22.6416Z" fill="white" stroke="white" stroke-width="0.5"/>
<path d="M17.8569 12.6215C18.0892 12.5674 18.3395 12.6762 18.4478 12.9017L18.4839 13.0023C18.5333 13.2045 18.4515 13.4146 18.2847 13.5355L18.1948 13.5883L12.269 16.2943L12.2681 16.2933C12.1948 16.3271 12.1205 16.3421 12.0513 16.3422C11.8825 16.3422 11.7179 16.2607 11.6187 16.1146L11.5796 16.0472C11.454 15.785 11.5736 15.4786 11.8325 15.3607L17.7583 12.6556V12.6547L17.8569 12.6215Z" fill="white" stroke="white" stroke-width="0.5"/>
<path d="M16.7275 9.38654C16.9625 9.33896 17.2315 9.42715 17.3584 9.65411L17.4043 9.76447C17.4662 9.98444 17.3541 10.1975 17.1738 10.3113L17.0781 10.3602L10.166 13.0643L10.167 13.0652C10.0898 13.0962 10.0119 13.1082 9.94043 13.1082C9.7499 13.1082 9.54304 13.0189 9.43555 12.8279V12.827C9.27179 12.5339 9.44877 12.2261 9.71582 12.1219L16.6289 9.41583L16.7275 9.38654Z" fill="white" stroke="white" stroke-width="0.5"/>
<path d="M28.3779 20.1534C29.4883 20.1536 30.3555 21.1349 30.3555 22.295V22.8234C30.3555 23.9835 29.4883 24.9648 28.3779 24.965H16.7412C15.6307 24.965 14.7637 23.9836 14.7637 22.8234V22.295C14.7637 21.1348 15.6307 20.1534 16.7412 20.1534H28.3779ZM16.7412 21.2843C16.2651 21.2843 15.8398 21.716 15.8398 22.295V22.8234C15.8398 23.4024 16.2651 23.8351 16.7412 23.8351H28.3779C28.8539 23.8349 29.2793 23.4023 29.2793 22.8234V22.295C29.2793 21.7161 28.8539 21.2845 28.3779 21.2843H16.7412Z" fill="white" stroke="white" stroke-width="0.5"/>
<path d="M26.125 16.9198C27.2761 16.92 28.1982 17.8881 28.1982 19.0614V19.5897C28.1982 20.763 27.2761 21.7312 26.125 21.7313H18.9932C17.8419 21.7313 16.9189 20.7631 16.9189 19.5897V19.0614C16.9189 17.888 17.8419 16.9198 18.9932 16.9198H26.125ZM18.9932 18.0507C18.4693 18.0507 18.0264 18.4955 18.0264 19.0614V19.5897C18.0264 20.1556 18.4693 20.6014 18.9932 20.6014H26.125C26.6488 20.6013 27.0908 20.1555 27.0908 19.5897V19.0614C27.0908 18.4956 26.6488 18.0508 26.125 18.0507H18.9932Z" fill="white" stroke="white" stroke-width="0.5"/>
</svg>
