<svg width="36" height="24" viewBox="0 0 36 24" fill="none" xmlns="http://www.w3.org/2000/svg">
<path d="M27.4746 0.75C28.9391 0.75 30.1318 1.9417 30.1318 3.40625C30.1317 4.87056 28.9392 6.06348 27.4746 6.06348C26.009 6.06327 24.8185 4.87157 24.8184 3.40625C24.8184 1.9406 26.0103 0.750202 27.4746 0.75ZM27.4746 1.66113C26.5173 1.66134 25.7373 2.44347 25.7373 3.40625C25.7374 4.36913 26.5175 5.15214 27.4746 5.15234C28.4319 5.15234 29.2128 4.3703 29.2129 3.40625C29.2129 2.44229 28.4322 1.66113 27.4746 1.66113Z" fill="white" stroke="white" stroke-width="0.5"/>
<path d="M19.9614 3.15619C20.32 3.15571 20.6648 3.27879 20.9448 3.51166H20.9458L25.1431 6.80756H29.7358C29.7431 6.80756 29.7693 6.80696 29.7974 6.81049H29.7993L29.9673 6.83783C30.801 6.99378 31.5856 7.46923 32.1978 8.17865L35.4194 11.789L35.4214 11.791L35.4644 11.8486L35.4692 11.8554L35.5474 11.9951C35.715 12.3248 35.7839 12.6961 35.7271 13.041L35.728 13.0419C35.6751 13.377 35.5016 13.6897 35.2427 13.9228L35.2407 13.9247C35.0083 14.1295 34.7224 14.2582 34.4116 14.2968L34.396 14.2988H34.3833C34.3845 14.2987 34.3864 14.2979 34.3882 14.2978C34.2652 14.3125 34.1439 14.3114 34.0249 14.2968V14.2958C33.6833 14.2581 33.353 14.107 33.0991 13.8701L33.0923 13.8642L33.269 13.6874L33.0923 13.8632C33.0899 13.8608 33.0869 13.8588 33.0845 13.8564C33.0821 13.854 33.0801 13.851 33.0776 13.8486L33.0718 13.8437L33.0669 13.8378L30.6685 11.1328L30.7876 17.5117L32.3735 20.2675L32.4536 20.4238C32.7851 21.1644 32.5498 22.0432 31.8931 22.5185L31.7466 22.6142C31.3999 22.815 31.0022 22.8868 30.6118 22.8212L30.4458 22.7851C30.004 22.6664 29.635 22.3805 29.4067 21.9853L29.4058 21.9843L27.7427 19.0937C27.6275 18.8933 27.5299 18.6853 27.4478 18.4716L27.9878 21.707L28.0083 21.8769C28.0314 22.2154 27.954 22.5501 27.7856 22.8447L27.6938 22.9882C27.429 23.3606 27.0328 23.6097 26.5815 23.6845L26.5825 23.6855C26.5709 23.6875 26.559 23.6877 26.5474 23.6894V23.7119H26.2974C25.5268 23.7117 24.8412 23.1877 24.6431 22.4316L24.6099 22.2773L24.0405 18.8671V18.8661C23.9648 18.4103 23.9263 17.9455 23.9263 17.4843V10.0449L18.9741 5.97943L18.9722 5.97748C18.6084 5.67182 18.4009 5.22228 18.4009 4.7431C18.4009 4.3793 18.5207 4.0341 18.7437 3.74701L18.7456 3.74506L18.8491 3.62592C19.1038 3.36288 19.4396 3.20052 19.8062 3.164L19.9614 3.15619ZM19.8979 4.10931H19.897C19.7342 4.1262 19.5884 4.20604 19.4839 4.33588C19.3928 4.45496 19.3442 4.59503 19.3442 4.7431C19.3442 4.94224 19.4286 5.12423 19.5718 5.24506L24.6938 9.45111L24.7681 9.52728C24.8328 9.61026 24.8687 9.71312 24.8687 9.81927V17.2324H24.8735V17.4824C24.8735 17.8924 24.9067 18.3053 24.9741 18.7089L25.5435 22.1201L25.561 22.1972C25.6637 22.5723 26.0364 22.8157 26.4224 22.7499H26.4233L26.4995 22.7333C26.8474 22.6378 27.083 22.3059 27.0591 21.9433L27.0503 21.8652L26.478 18.4433L26.479 18.4423C26.4708 18.396 26.4714 18.3547 26.4731 18.3281V18.3212L26.814 14.581C26.8354 14.3413 27.0338 14.1538 27.2749 14.1484V14.1494C27.5367 14.1395 27.7255 14.3347 27.7554 14.5605L28.1294 17.3495H28.1284C28.1813 17.7437 28.2996 18.1204 28.48 18.4716L28.561 18.621L30.2222 21.5107H30.2231C30.3262 21.6891 30.4904 21.8155 30.687 21.8681L30.8354 21.8935C30.9846 21.9034 31.1332 21.8686 31.2671 21.7919L31.3325 21.7499C31.6251 21.5383 31.73 21.1444 31.5815 20.8124L31.5464 20.7431L29.9009 17.8828C29.8635 17.8178 29.8384 17.7393 29.8374 17.6542L29.6919 9.86615V9.86517C29.6893 9.67127 29.8051 9.48798 29.9937 9.41498L30.064 9.39349C30.2053 9.36273 30.354 9.39799 30.4663 9.49017L30.52 9.54193L33.7495 13.1826C33.8282 13.2529 33.9237 13.3048 34.0259 13.3329L34.1313 13.3535L34.1343 13.3544L34.2114 13.3593C34.2347 13.3594 34.2561 13.3583 34.2749 13.3554L34.2935 13.3525H34.2993C34.3002 13.3524 34.3024 13.3517 34.3052 13.3515C34.4213 13.3346 34.5237 13.2876 34.604 13.2167L34.6724 13.1445C34.7332 13.0679 34.7712 12.9802 34.7847 12.8935L34.7856 12.8915L34.7925 12.7724C34.7876 12.652 34.7478 12.517 34.6724 12.3857L31.4819 8.80853L31.479 8.8056C30.9677 8.2118 30.3321 7.84833 29.6909 7.7558H24.9751C24.8966 7.7558 24.8183 7.73695 24.7485 7.69916L24.6821 7.65521L20.3511 4.25287L20.3462 4.24896C20.2149 4.13973 20.0584 4.09279 19.8979 4.10931Z" fill="white" stroke="white" stroke-width="0.5"/>
<path d="M9.02295 0.75C7.55841 0.75 6.36572 1.9417 6.36572 3.40625C6.36583 4.87056 7.55832 6.06348 9.02295 6.06348C10.4886 6.06327 11.6791 4.87157 11.6792 3.40625C11.6792 1.9406 10.4872 0.750202 9.02295 0.75ZM9.02295 1.66113C9.98027 1.66134 10.7603 2.44347 10.7603 3.40625C10.7601 4.36913 9.98002 5.15214 9.02295 5.15234C8.06561 5.15234 7.28477 4.3703 7.28467 3.40625C7.28467 2.44229 8.06536 1.66113 9.02295 1.66113Z" fill="white" stroke="white" stroke-width="0.5"/>
<path d="M15.7959 3.15619C15.4488 3.15568 15.1162 3.28046 14.8477 3.51459H14.8467L10.8535 6.80756H6.48633C6.47936 6.80755 6.45383 6.80682 6.42578 6.81049H6.42285L6.2627 6.83783C5.4626 6.99475 4.71318 7.47377 4.12988 8.18353L1.06152 11.7939L1.05957 11.7958L1.01758 11.8535L1.01367 11.8603L0.939453 11.999C0.779526 12.329 0.713902 12.7 0.768555 13.0429L0.769531 13.0419C0.819743 13.3735 0.982114 13.685 1.22949 13.9189L1.23145 13.9208C1.45412 14.1269 1.73016 14.2575 2.03125 14.2968L2.04688 14.2988H2.05859C2.05771 14.2987 2.05677 14.2979 2.05566 14.2978C2.17403 14.3124 2.29106 14.3115 2.40527 14.2968V14.2958C2.73607 14.2573 3.05406 14.1033 3.29688 13.8652L3.31738 13.8447L3.32227 13.8388L3.32715 13.8339L5.58691 11.1581L5.47363 17.5146L3.96191 20.2724L3.88672 20.4267C3.57296 21.1616 3.79217 22.0371 4.4209 22.5146L4.56152 22.6113C4.94262 22.843 5.38967 22.9061 5.81738 22.7841V22.7831C6.19057 22.6777 6.50706 22.444 6.72559 22.123L6.81348 21.9804L8.39746 19.0898C8.48878 18.9229 8.56818 18.7502 8.6377 18.5742L8.13965 21.7089L8.12012 21.8769C8.09447 22.2691 8.19856 22.6567 8.41895 22.9833V22.9843C8.67112 23.3565 9.05081 23.6086 9.4873 23.6845L9.48633 23.6855C9.49472 23.687 9.50334 23.6871 9.51172 23.6884V23.7119H9.76172C10.5098 23.7116 11.1621 23.1791 11.3496 22.4286L11.3809 22.2753L11.9229 18.8652V18.8642C11.9948 18.4089 12.0322 17.9448 12.0322 17.4843V10.041L16.748 5.97552L16.75 5.97357C17.0981 5.66645 17.2939 5.21787 17.2939 4.7431C17.2939 4.38247 17.181 4.03896 16.9688 3.75189L16.9668 3.74994L16.8682 3.6308C16.6247 3.36662 16.3018 3.20119 15.9463 3.164L15.7959 3.15619ZM15.8545 4.10931C16.0013 4.12526 16.1373 4.19953 16.2363 4.32709L16.2354 4.32806C16.3235 4.44779 16.3711 4.59066 16.3711 4.7431C16.3711 4.94669 16.2891 5.12956 16.1543 5.24896L11.2764 9.45502L11.2051 9.53119C11.1431 9.61444 11.1104 9.71637 11.1104 9.81927V17.2324H11.1055V17.4824C11.1055 17.8931 11.0741 18.3066 11.0098 18.7109L10.4668 22.122L10.4512 22.2001C10.3523 22.5819 9.99669 22.8127 9.64648 22.7499H9.64551L9.5752 22.7343C9.25473 22.6413 9.02446 22.3143 9.04785 21.9433L9.05664 21.8632L9.60156 18.4413L9.60059 18.4404C9.60823 18.3951 9.6081 18.3543 9.60645 18.3281L9.60547 18.3222L9.28223 14.582C9.26264 14.3518 9.07672 14.1541 8.83105 14.1484V14.1494C8.56517 14.139 8.38884 14.3456 8.36133 14.5615L8.00488 17.3515L7.97949 17.5195C7.92099 17.8541 7.81751 18.1749 7.66992 18.4765L7.59277 18.6249V18.6259L6.00977 21.5156L5.92578 21.6396C5.83215 21.7522 5.71107 21.8309 5.5752 21.8691C5.39386 21.92 5.20521 21.8947 5.03906 21.7949L4.97754 21.7529C4.7025 21.5434 4.59782 21.147 4.74121 20.8095L4.77539 20.7382L6.34277 17.8779C6.37818 17.8132 6.4016 17.7362 6.40234 17.6533L6.54102 9.86615V9.8642C6.5432 9.67795 6.4371 9.49214 6.25 9.41595L6.17871 9.39349C6.03668 9.36121 5.88887 9.39981 5.7793 9.49408L5.72754 9.54584V9.54681L2.65039 13.1884C2.57686 13.257 2.48868 13.3069 2.39551 13.3339L2.29785 13.3535L2.29492 13.3544L2.22461 13.3593C2.20352 13.3594 2.18457 13.358 2.16797 13.3554L2.14844 13.3525H2.14258C2.14179 13.3524 2.14043 13.3517 2.13867 13.3515C2.03273 13.3353 1.93847 13.2903 1.86328 13.2206L1.79883 13.1494C1.74093 13.0729 1.70363 12.9845 1.69043 12.8954L1.68945 12.8925L1.68262 12.7714C1.68745 12.6487 1.72642 12.5118 1.79883 12.3798L4.83691 8.80463L4.83984 8.80072C5.32646 8.2075 5.92857 7.84753 6.53223 7.7558H11.0215C11.1267 7.75576 11.2288 7.71938 11.3115 7.65131H11.3125L15.4365 4.24994L15.4414 4.24506C15.5339 4.16427 15.6383 4.11908 15.7461 4.10834L15.8545 4.10931Z" fill="white" stroke="white" stroke-width="0.5"/>
</svg>
