<svg width="27" height="31" viewBox="0 0 27 31" fill="none" xmlns="http://www.w3.org/2000/svg">
<path d="M10.9014 19.0756C13.1263 19.0756 15.2371 19.4588 17.0088 20.1888H17.0098C17.2838 20.3009 17.4151 20.6167 17.3037 20.891L17.3018 20.89C17.1928 21.1621 16.8841 21.3019 16.6064 21.1859V21.1869C14.9723 20.5126 13.0001 20.1537 10.9014 20.1537C8.36026 20.1537 6.06775 20.6871 4.41992 21.5365C2.75913 22.3926 1.81855 23.5299 1.81836 24.7142C1.81836 25.8987 2.75895 27.0373 4.41992 27.8939C6.06774 28.7437 8.36035 29.2767 10.9014 29.2767C12.935 29.2767 14.857 28.9224 16.4072 28.3187C17.9642 27.7124 19.1151 26.8675 19.6543 25.9115L19.6553 25.9105L19.7178 25.8226C19.8813 25.6354 20.1577 25.5803 20.3848 25.7103H20.3857L20.4736 25.7748C20.6333 25.9174 20.6923 26.1438 20.627 26.3461L20.584 26.4447C19.9073 27.6444 18.5795 28.6199 16.8926 29.2943C15.2008 29.9706 13.1217 30.3549 10.9023 30.3549H10.9014C8.13777 30.3549 5.61918 29.7441 3.7832 28.7445C1.95706 27.7502 0.75 26.3352 0.75 24.7142C0.750183 23.0934 1.95731 21.6797 3.7832 20.6859C5.61918 19.6867 8.1378 19.0756 10.9014 19.0756Z" fill="white" stroke="white" stroke-width="0.5"/>
<path d="M10.873 6.14172C11.1736 6.1298 11.4479 6.35655 11.458 6.66907L11.4502 6.78333C11.4097 7.00399 11.2328 7.17182 11.0186 7.21985L10.9092 7.23352C8.25098 7.31561 6.19629 9.32692 6.19629 11.7794C6.19656 14.229 8.37239 16.3263 11.0801 16.3263C12.8064 16.3262 14.4183 15.4622 15.2881 14.0841L15.3574 13.9952C15.5109 13.836 15.7459 13.7837 15.9531 13.8497L16.0537 13.8927L16.0557 13.8937L16.1494 13.9581C16.3476 14.127 16.4063 14.4159 16.2598 14.6515L16.2588 14.6534C15.1772 16.3648 13.1924 17.4191 11.0811 17.4191H11.0801C7.77815 17.4191 5.06179 14.9059 5.06152 11.7794C5.06152 8.65542 7.63259 6.24069 10.873 6.13977V6.14172Z" fill="white" stroke="white" stroke-width="0.5"/>
<path d="M11.4629 8.34167C12.0035 8.2357 12.553 8.31197 13.0293 8.57117L13.2314 8.69617C13.6837 9.00831 13.9983 9.47224 14.125 10.0233L14.167 10.2606C14.2266 10.7358 14.1423 11.2188 13.9248 11.6581L13.8047 11.8739C13.4663 12.4214 12.9413 12.8241 12.3281 13.0048H12.3271C12.0949 13.0728 11.8606 13.1073 11.6309 13.1073H11.0801L11.1299 13.0497C10.3731 12.8829 9.73945 12.3451 9.48828 11.5721L9.43457 11.3798C9.29021 10.7516 9.4068 10.0945 9.75488 9.53015V9.52917L9.89062 9.33093C10.2263 8.88449 10.6957 8.55633 11.2324 8.39832L11.4629 8.34167ZM11.9336 9.41296C11.7959 9.413 11.6537 9.43392 11.5137 9.47644H11.5117C11.1877 9.57267 10.9066 9.76796 10.708 10.0311L10.6279 10.1473C10.4366 10.4566 10.3783 10.7982 10.4502 11.1112H10.4492C10.5891 11.7169 11.2113 12.0999 11.9082 11.9628L12.0488 11.9276C12.4186 11.8176 12.7328 11.5796 12.9316 11.2577L12.9971 11.1395C13.1158 10.9022 13.1603 10.6514 13.1309 10.412L13.1104 10.2938C13.0477 10.0216 12.8895 9.7904 12.6572 9.63171L12.5537 9.56824C12.3667 9.46674 12.1539 9.41296 11.9336 9.41296Z" fill="white" stroke="white" stroke-width="0.5"/>
<path d="M10.8853 0.848633C11.9131 0.625683 12.6856 0.803003 13.2886 1.15723C13.8795 1.50447 14.2911 2.01396 14.6138 2.41016L14.9487 2.80566C15.0489 2.91602 15.1404 3.00534 15.229 3.07422C15.3943 3.20268 15.5299 3.24372 15.686 3.2207L15.7856 3.21484C15.9884 3.21923 16.2027 3.32234 16.2954 3.52148L16.3315 3.62891L16.3423 3.74609C16.3337 4.00989 16.1015 4.1957 15.8667 4.22949V4.22852C14.9308 4.36427 14.3475 3.79006 13.8911 3.24512L13.7026 3.01562C13.3882 2.63016 13.1101 2.29282 12.7632 2.06348C12.4904 1.88326 12.1682 1.76822 11.7397 1.77246L14.0962 9.2207L14.1187 9.33789C14.1357 9.60202 13.9208 9.80764 13.6841 9.8584L13.6851 9.85938C13.6409 9.86909 13.5953 9.87296 13.5522 9.87305V9.87402H13.5513V9.87305C13.3601 9.87258 13.1486 9.77942 13.0464 9.5918L13.0093 9.50488L10.4731 1.4873C10.3729 1.1688 10.6147 0.907736 10.8853 0.849609V0.848633Z" fill="white" stroke="white" stroke-width="0.5"/>
<path d="M16.001 11.7048C16.4851 10.5043 17.9083 10.1212 19.1211 10.7576L19.332 10.8796C19.8104 11.1841 20.1927 11.6247 20.4229 12.1394L20.5146 12.3738C20.7034 12.9239 20.7023 13.4972 20.4941 14.0095C20.2022 14.7346 19.5565 15.1665 18.8242 15.2468V15.2634H18.5742C18.1785 15.2634 17.7671 15.1638 17.374 14.9568V14.9578C16.7971 14.6558 16.3353 14.1633 16.0723 13.575L16.0732 13.574C15.7962 12.9551 15.7631 12.2901 16.001 11.7048ZM17.8799 11.6179C17.5132 11.6267 17.2169 11.7841 17.0557 12.0496L16.9932 12.1726C16.8919 12.4242 16.9025 12.7414 17.0488 13.0691H17.0479C17.2057 13.4214 17.4906 13.721 17.8506 13.9109H17.8496C18.5887 14.2985 19.291 14.0624 19.5 13.5457C19.5886 13.3255 19.5928 13.055 19.4941 12.7712L19.4453 12.6492C19.2874 12.297 19.0034 11.9972 18.6436 11.8074V11.8064C18.3956 11.6765 18.1418 11.618 17.9121 11.6179H17.8799Z" fill="white" stroke="white" stroke-width="0.5"/>
<path d="M23.4658 6.35461C23.6096 6.15706 23.8779 6.08151 24.1094 6.1886L24.2568 6.26086C24.9745 6.63187 25.3417 7.13979 25.5107 7.68469C25.6417 8.10703 25.6493 8.54153 25.6318 8.92102L25.6104 9.27942C25.5854 9.63247 25.5734 9.87387 25.6025 10.0499C25.6284 10.2057 25.6805 10.2785 25.7725 10.3302L25.8604 10.3917C26.0198 10.5284 26.0818 10.7484 26.0195 10.9474L25.9775 11.0441C25.8544 11.2677 25.5937 11.3641 25.3613 11.2911L25.2637 11.2491C24.8517 11.0198 24.6606 10.6744 24.584 10.3009C24.5109 9.94424 24.5397 9.54971 24.5635 9.20618L24.584 8.89465C24.5996 8.594 24.597 8.32463 24.5361 8.07922C24.4764 7.83881 24.3571 7.61731 24.1191 7.41907L21.1553 13.8781L21.1543 13.8771C21.1052 13.9849 21.0241 14.066 20.9277 14.1183V14.1857H20.6777C20.6092 14.1857 20.5332 14.1714 20.459 14.1359V14.1368C20.4575 14.1362 20.4565 14.1346 20.4551 14.1339C20.4539 14.1333 20.4523 14.1335 20.4512 14.1329V14.132C20.1933 14.0086 20.0819 13.7007 20.2021 13.4396H20.2012L23.4121 6.44641L23.4658 6.35461Z" fill="white" stroke="white" stroke-width="0.5"/>
<path d="M18.9536 21.5028C19.4387 21.2566 20.0572 21.1693 20.7026 21.2772L20.9233 21.3221C21.4315 21.4441 21.8945 21.6839 22.2388 22.0184L22.3882 22.1796C22.7131 22.5653 22.8673 23.0256 22.7896 23.4969C22.7132 23.9684 22.4204 24.3557 21.9897 24.6151L21.7974 24.7177C21.449 24.8833 21.05 24.9657 20.6372 24.9657H20.6353C20.4605 24.9657 20.283 24.9513 20.103 24.9198V24.9188C19.459 24.8107 18.9021 24.5279 18.522 24.1376C18.1408 23.7461 17.9295 23.2363 18.0171 22.7001L18.063 22.5048C18.1977 22.0628 18.5282 21.7188 18.9536 21.5028ZM20.1763 22.3114C19.8651 22.3114 19.5904 22.3819 19.3931 22.493C19.2441 22.577 19.1513 22.6761 19.105 22.7762L19.0737 22.8759C19.0485 23.0318 19.1235 23.2343 19.3462 23.4344C19.5645 23.6307 19.895 23.793 20.2808 23.8583L20.4292 23.8788C20.7718 23.9129 21.0909 23.862 21.3403 23.744L21.4302 23.6971C21.6231 23.5842 21.7132 23.4469 21.7339 23.3221L21.7388 23.2675C21.7406 23.1348 21.6735 22.9688 21.4946 22.7948V22.7938C21.2961 22.6013 21.0093 22.4498 20.6743 22.37L20.5278 22.3397C20.4096 22.3198 20.293 22.3114 20.1772 22.3114H20.1763Z" fill="white" stroke="white" stroke-width="0.5"/>
<path d="M22.917 15.8505L22.918 15.8495C23.7845 16.0023 24.3143 16.3936 24.6465 16.8759C24.9691 17.3445 25.0927 17.8828 25.1885 18.2919L25.292 18.702C25.3247 18.8135 25.3573 18.9019 25.3945 18.9735C25.458 19.0955 25.5263 19.152 25.6445 19.1815H25.6455L25.7471 19.2196C25.9695 19.3287 26.0837 19.5842 26.0303 19.826L26.0293 19.8251C25.9691 20.1061 25.6942 20.3052 25.3994 20.2303V20.2313C24.9524 20.1192 24.6771 19.8439 24.5 19.5214C24.3724 19.2888 24.2928 19.0262 24.2314 18.7821L24.1748 18.5468C24.0839 18.1579 24.0053 17.8289 23.8389 17.5594C23.7162 17.3609 23.5397 17.1887 23.2529 17.0634L22.2686 23.4325V23.4335C22.2286 23.684 22.0198 23.8876 21.7549 23.8876H21.6475L21.6289 23.868C21.3544 23.7995 21.1981 23.5259 21.2383 23.2616V23.2606L22.3154 16.2958C22.3584 16.0173 22.6138 15.7965 22.917 15.8505Z" fill="white" stroke="white" stroke-width="0.5"/>
</svg>
