<svg width="31" height="31" viewBox="0 0 31 31" fill="none" xmlns="http://www.w3.org/2000/svg">
<path d="M2.92578 10.4733L3.02539 10.5134L3.02637 10.5143L3.11719 10.5749C3.28137 10.711 3.34971 10.9334 3.29004 11.1374L3.24902 11.238C2.31629 12.9958 1.82227 14.9846 1.82227 16.989C1.82231 23.7668 7.34335 29.2819 14.1289 29.2819C19.7871 29.2817 24.6947 25.4585 26.0654 19.9831L26.1025 19.8815C26.2101 19.6572 26.464 19.5309 26.7148 19.5934L26.8164 19.6296C27.009 19.7216 27.1302 19.9218 27.1211 20.1354L27.1055 20.2429C25.648 26.0648 20.5103 30.1648 14.5312 30.3425L14.5381 30.3552H14.1289C6.75314 30.3552 0.750239 24.3612 0.75 16.9909C0.75 14.8134 1.28601 12.65 2.30176 10.737V10.736L2.3623 10.6462C2.4986 10.4815 2.72144 10.4135 2.92578 10.4733Z" fill="white" stroke="white" stroke-width="0.5"/>
<path d="M14.2666 2.90594C20.9302 2.90594 26.6584 7.26297 28.1836 13.5143L28.1992 13.6266C28.2074 13.8855 28.0249 14.1151 27.7666 14.1716L27.7637 14.1725C27.7306 14.1794 27.6886 14.1852 27.6436 14.1852H27.6416C27.3963 14.1852 27.162 14.0239 27.1006 13.7663V13.7653C25.6986 8.0176 20.4261 3.99481 14.2666 3.99481C12.4609 3.99484 10.7131 4.33876 9.06738 5.01825L9.06641 5.01923C8.82617 5.11722 8.54668 5.04022 8.39746 4.8327L8.3418 4.73505C8.21642 4.45276 8.35534 4.13175 8.63477 4.0163L8.9707 3.88251C10.6543 3.23502 12.4351 2.90597 14.2666 2.90594Z" fill="white" stroke="white" stroke-width="0.5"/>
<path d="M11.0254 6.31079C11.1818 6.15426 11.4188 6.10453 11.626 6.16528L11.7266 6.20532L11.7285 6.2063L11.8242 6.26782C12.0289 6.43097 12.1015 6.72032 11.9453 6.96216L11.9443 6.96313C11.0263 8.36409 10.3183 10.2547 9.89355 12.4602L9.81152 12.9055C9.57748 14.2696 9.45802 15.7053 9.45801 17.1692C9.45801 18.6332 9.57744 20.066 9.81152 21.4319L9.89355 21.8772C10.3182 24.0822 11.0257 25.9735 11.9434 27.3743H11.9443C12.1285 27.6538 12.0009 27.9933 11.7285 28.1331L11.7266 28.134C11.6391 28.178 11.5435 28.1995 11.4492 28.1995C11.266 28.1995 11.0684 28.1161 10.9541 27.9397V27.9407C9.95339 26.4137 9.19754 24.39 8.75 22.0715L8.66406 21.6038C8.41946 20.1812 8.2959 18.6892 8.2959 17.1692C8.29591 15.6493 8.41949 14.1561 8.66406 12.7336V12.7327L8.75 12.2659C9.19732 9.94759 9.95151 7.92489 10.9541 6.39771L11.0254 6.31079Z" fill="white" stroke="white" stroke-width="0.5"/>
<path d="M14.5024 2.90985L14.5015 2.91083C15.9351 2.98198 17.2276 4.03785 18.2603 5.83759H18.2612C19.2219 7.50732 19.9319 9.7563 20.3218 12.3317L20.3999 12.8825C20.5687 14.1736 20.6538 15.5154 20.6538 16.8806C20.6538 18.4406 20.5419 19.9681 20.3218 21.4265V21.4274C19.9319 24.0043 19.2236 26.253 18.2612 27.9245C18.1595 28.1026 17.9733 28.1989 17.7866 28.1989H17.1948L17.3784 28.0095C17.228 27.8372 17.1952 27.5835 17.313 27.3757L17.314 27.3747L17.4771 27.0798C18.2804 25.5727 18.8897 23.5727 19.2388 21.2624L19.313 20.7331C19.4753 19.4907 19.5591 18.1974 19.5591 16.8806C19.5591 15.5637 19.4753 14.2688 19.313 13.0261L19.2388 12.4968C18.8898 10.1882 18.2803 8.18838 17.4771 6.68134L17.314 6.38641C16.4187 4.82578 15.4164 4.05394 14.4448 4.00555V4.00458H14.2622V4.00555L14.2612 4.00458C13.9935 4.01699 13.7688 3.84356 13.7046 3.5993L13.687 3.48993C13.6691 3.18772 13.8996 2.92822 14.2007 2.90985H14.2026L14.3521 2.90594C14.4022 2.90594 14.4523 2.9071 14.5024 2.90985Z" fill="white" stroke="white" stroke-width="0.5"/>
<path d="M14.4751 0.75C14.6602 0.750024 14.8399 0.794488 14.9819 0.87793C15.1176 0.957632 15.264 1.10387 15.2642 1.31641V3.91699C15.2642 4.12969 15.1177 4.27671 14.9819 4.35645C14.8399 4.43981 14.6601 4.48435 14.4751 4.48438C14.2899 4.48438 14.1094 4.43995 13.9673 4.35645C13.8316 4.27664 13.686 4.12949 13.686 3.91699V1.31641C13.6862 1.10418 13.8317 0.957729 13.9673 0.87793C14.1094 0.794426 14.2899 0.75 14.4751 0.75Z" fill="white" stroke="white" stroke-width="0.5"/>
<path d="M9.57617 20.3868C12.9744 20.0531 16.5932 20.0767 19.96 20.4581L20.5605 20.5304C21.9549 20.7077 23.2936 20.9465 24.5488 21.2394L24.6475 21.2716C24.8696 21.3697 25.024 21.6101 24.9443 21.8771L24.9453 21.8781C24.8604 22.1674 24.5496 22.3029 24.2822 22.2394V22.2404C23.0666 21.9568 21.7678 21.7253 20.4111 21.5529L19.8271 21.4825C16.5424 21.1106 13.0074 21.0878 9.69141 21.4132L9.03125 21.4825C7.65873 21.6381 6.34028 21.8538 5.10156 22.1222L4.5752 22.2404C3.87649 22.4027 3.19429 22.5842 2.55078 22.7814L2.55176 22.7823C2.49152 22.8021 2.43164 22.8086 2.37695 22.8087V22.8097H2.37598V22.8087C2.19166 22.8083 2.00272 22.7187 1.90039 22.5499L1.8623 22.4728L1.86133 22.4698C1.74845 22.1752 1.93336 21.8885 2.20508 21.8038L2.20605 21.8029L2.71582 21.6525C3.23251 21.5042 3.76737 21.3655 4.31055 21.2394L4.85254 21.1173C6.13016 20.8402 7.48906 20.618 8.90039 20.4581L9.57617 20.3868Z" fill="white" stroke="white" stroke-width="0.5"/>
<path d="M24.2729 11.5414C24.404 11.5166 24.5389 11.5317 24.6538 11.5786C24.7374 11.6127 24.8264 11.671 24.8882 11.7592L24.9399 11.8569L24.9565 11.9145C24.9858 12.0489 24.9425 12.1771 24.8647 12.2709C24.7796 12.3736 24.6559 12.4367 24.5259 12.4604V12.4594C23.0132 12.738 21.3892 12.9569 19.7026 13.1059L19.6909 13.1069H19.6714C19.6654 13.1072 19.6535 13.1078 19.6401 13.1078C19.5211 13.1078 19.4014 13.0775 19.3022 13.017C19.2291 12.9724 19.1556 12.9035 19.1128 12.81L19.0815 12.7075C19.0535 12.5448 19.126 12.4056 19.2241 12.3168C19.3203 12.2297 19.448 12.1806 19.5796 12.1694L20.8013 12.0483C22.0081 11.9149 23.1713 11.7461 24.2729 11.5424V11.5414Z" fill="white" stroke="white" stroke-width="0.5"/>
<path d="M4.6377 11.5395L5.66895 11.6948C6.36802 11.7922 7.08988 11.8773 7.8291 11.9496L8.95117 12.0483L10.2246 12.1362C11.5113 12.2117 12.8359 12.2504 14.1777 12.2504C15.0753 12.2504 15.9743 12.2333 16.8506 12.1987C16.97 12.1935 17.0903 12.2185 17.1904 12.2729C17.2731 12.3179 17.373 12.4022 17.4072 12.5327L17.417 12.5912L17.418 12.6518C17.4088 12.79 17.322 12.8921 17.2402 12.9496C17.145 13.0165 17.0258 13.0497 16.9072 13.0541L16.9082 13.0551C16.095 13.0868 15.2618 13.1011 14.4297 13.1039V13.1078H14.1797C12.3526 13.1078 10.5569 13.0384 8.83984 12.9008V12.9018C7.29081 12.7811 5.80033 12.6051 4.40918 12.3784V12.3774C4.29339 12.3586 4.17542 12.3097 4.09082 12.2202C4.00055 12.1244 3.9462 11.9732 4.01367 11.8159H4.0127C4.07036 11.6791 4.19291 11.6046 4.29199 11.5688C4.39741 11.5307 4.51905 11.5199 4.6377 11.5395Z" fill="white" stroke="white" stroke-width="0.5"/>
<path d="M4.77246 2.90594C4.99627 2.90603 5.21815 3.04183 5.28809 3.27411L5.3584 3.48505C5.73522 4.53107 6.48836 5.4213 7.44922 5.94891V5.94989L7.50586 5.98602C7.63233 6.0779 7.71777 6.22316 7.71777 6.3913C7.71777 6.58341 7.60611 6.74598 7.44922 6.8327V6.83368C6.42445 7.39499 5.63575 8.36887 5.28809 9.50555V9.50751C5.21663 9.73634 4.99757 9.87161 4.77344 9.87274V9.87372H4.77051V9.87274C4.54745 9.8714 4.3271 9.73637 4.25781 9.50458V9.50555C3.91015 8.36749 3.12208 7.39351 2.09766 6.83368L2.09668 6.8327C1.95931 6.75678 1.85639 6.62278 1.83301 6.46161L1.82812 6.3913L1.83301 6.32098C1.85627 6.16053 1.95796 6.02692 2.09277 5.95087L2.09473 5.94989L2.28418 5.83856C3.21743 5.26101 3.9325 4.33811 4.25684 3.27411V3.27216L4.29004 3.1911C4.38246 3.01165 4.57396 2.90594 4.77246 2.90594ZM4.77539 4.73212C4.40162 5.37364 3.90436 5.93992 3.31348 6.38934C3.90353 6.83782 4.40133 7.40418 4.77539 8.04559C5.149 7.40444 5.64567 6.83787 6.23633 6.38934C5.6466 5.94008 5.1493 5.37346 4.77539 4.73212Z" fill="white" stroke="white" stroke-width="0.5"/>
<path d="M27.9478 15.8415C28.1457 15.8415 28.3313 15.9515 28.4194 16.1296L28.4517 16.2097V16.2106L28.5054 16.3806C28.7939 17.2198 29.3687 17.9298 30.0981 18.3493H30.0991L30.1538 18.3864C30.2764 18.4797 30.3549 18.6245 30.355 18.7868C30.355 18.9722 30.2526 19.1352 30.0991 19.2243L30.0981 19.2253C29.3204 19.6713 28.7181 20.4492 28.4517 21.362V21.363C28.3849 21.5871 28.1753 21.7294 27.9497 21.7302V21.7311H27.9478V21.7302C27.7232 21.7295 27.5118 21.5879 27.4468 21.361V21.362C27.1804 20.4493 26.5789 19.6713 25.8013 19.2253L25.8003 19.2243C25.6656 19.1463 25.57 19.0121 25.5483 18.8552L25.5435 18.7868L25.5483 18.7184C25.5701 18.5625 25.6643 18.4283 25.7964 18.3503L25.7993 18.3493L25.9429 18.2614C26.6515 17.8025 27.1975 17.0642 27.4458 16.2116V16.2097L27.4771 16.1296C27.5644 15.9524 27.7485 15.8415 27.9478 15.8415ZM27.9487 17.6237C27.6815 18.0641 27.3464 18.4582 26.9565 18.7849C27.3464 19.1108 27.6814 19.5048 27.9487 19.945C28.2158 19.5051 28.5514 19.1117 28.9409 18.7858C28.5509 18.4596 28.216 18.0649 27.9487 17.6237Z" fill="white" stroke="white" stroke-width="0.5"/>
</svg>
