<svg width="25" height="20" viewBox="0 0 25 20" fill="none" xmlns="http://www.w3.org/2000/svg">
<path d="M4.56 1.98C5.16667 1.18667 5.79667 0.743332 6.45 0.649997C7.15 0.556665 7.73333 0.696664 8.2 1.07C8.71333 1.39666 8.99333 1.91 9.04 2.61C9.13333 3.26333 8.85333 3.98666 8.2 4.78C7.26667 5.94666 6.61333 7.11333 6.24 8.28C5.91333 9.44666 5.75 10.4967 5.75 11.43L5.47 9.12C7.10333 9.12 8.41 9.58666 9.39 10.52C10.4167 11.4533 10.93 12.7133 10.93 14.3C10.93 15.7933 10.4633 17.03 9.53 18.01C8.59667 18.9433 7.33667 19.41 5.75 19.41C4.11667 19.41 2.83333 18.85 1.9 17.73C0.966667 16.61 0.5 15.0467 0.5 13.04C0.5 11.92 0.593333 10.7767 0.78 9.61C1.01333 8.39666 1.43333 7.16 2.04 5.9C2.64667 4.64 3.48667 3.33333 4.56 1.98ZM18.21 1.98C18.8167 1.18667 19.4467 0.743332 20.1 0.649997C20.8 0.556665 21.3833 0.696664 21.85 1.07C22.3633 1.39666 22.6433 1.91 22.69 2.61C22.7833 3.26333 22.5033 3.98666 21.85 4.78C20.9167 5.94666 20.2633 7.11333 19.89 8.28C19.5633 9.44666 19.4 10.4967 19.4 11.43L19.12 9.12C20.7533 9.12 22.06 9.58666 23.04 10.52C24.0667 11.4533 24.58 12.7133 24.58 14.3C24.58 15.7933 24.1133 17.03 23.18 18.01C22.2467 18.9433 20.9867 19.41 19.4 19.41C17.7667 19.41 16.4833 18.85 15.55 17.73C14.6167 16.61 14.15 15.0467 14.15 13.04C14.15 11.92 14.2433 10.7767 14.43 9.61C14.6633 8.39666 15.0833 7.16 15.69 5.9C16.2967 4.64 17.1367 3.33333 18.21 1.98Z" fill="white"/>
</svg>
